<svg height="140" viewBox="0 0 259 140" width="259" xmlns="http://www.w3.org/2000/svg" xmlns:xlink="http://www.w3.org/1999/xlink"><mask id="a" fill="#fff"><path d="m0 .058963h52.9853794v91.421263h-52.9853794z" fill="#fff" fill-rule="evenodd"/></mask><g fill="none" fill-rule="evenodd" transform="translate(1)"><path d="m40.8916807 34.7502077c4.5999889-7.4902718 9.0065027-9.9792602 13.2195413-7.466965 6.3195579 3.7684428 6.0307983 11.0943409 6.0307983 12.4945775 0 1.4002367.4001137 8.8366996-1.4245791 14.9821718-1.8246928 6.1454721-11.8003935 21.5767496-15.4500066 21.5767496-3.6496132 0-10.7393901-15.8063503-15.2288848-22.9232892-4.4894946-7.1169389-3.687502-25.4334363 2.3726047-26.1302097 4.0400712-.4645156 7.5335799 2.0244728 10.4805262 7.466965z" fill="#00b2e3"/><path d="m.17920621 94.4048455c9.23271154-23.1754208 13.44539339-20.2781068 18.91862299-12.4337284 24.4111655 34.9867319 31.1123783-3.7448777 34.3454645-16.3597447 3.2330862-12.6148669 6.2888014-22.538425 1.3021631-30.7550839-1.5807703-2.6030211-4.128548-4.7175159-7.004549-4.9941513-3.6192869-.3487371-6.975112 2.3101996-8.6500808 5.6872112-1.673497 3.3770115-1.9722832 7.3470233-2.0164388 11.1993179-.0161904 1.5111942.1030297 3.274009 1.6970466 3.9008529 1.4483035.5679854 2.98639-.3811093 3.5162571-1.8952465 2.3181687-6.6201198-2.6419763-12.988619-8.0716425-16.4642187-2.3579087-1.5097228-5.1573733-2.7795968-7.846449-.3693376-.7462295.6680449-1.3217241 1.5435665-1.6867436 2.5088473-1.533671 4.0479994.0780082 8.4550362 1.0980024 12.3676609 2.8068239 10.7534641 8.0009936 20.7020371 15.4250207 28.6862046 6.3010032 6.776095 9.3933666 6.7216508 14.7729898 6.6407203 8.2894768-.1236031 14.840695 7.0483159 13.9178431 15.2841039-.010303.0897594-.0220778.1795187-.0323808.2707495-.7962725 6.4818021 3.6958232 11.7290451 9.7098151 13.5198181 3.0923634.919665 8.717786.275164 10.0615879-3.262238 1.4939309-3.930282-6.8882726-9.8043689-6.2421291-3.816979 1.1745388 10.875596 27.1653811 6.655893 18.6734001-2.647165-8.4919803-9.3030582.100698-21.0549833.100698-21.0549833-2.3299433-.1177172-9.508171-5.2546005-12.4945609-2.3734726-2.98639 2.8796564 9.1225456 3.1724779 10.6091169-.0353152 1.488044-3.2077931-5.0337373-12.8782592-6.7072343-15.99335-1.6749689-3.1136193-10.1999422-1.8378594-14.2755034-1.1595141-4.0755613.6783452 7.3872308 20.0678357 5.3030867 18.8259195-2.0856158-1.2404448-10.0836657-4.1686595-11.8175087.1633326-1.7323711 4.3305206 8.4911207.6798167 8.4322466-4.4364661-.0574023-5.1162828-10.2794222-14.0274731-7.164981-15.7005285 3.115913-1.6745269 23.368612-4.0553568 24.7933658 1.5494523 2.2843163 8.9980067 23.2848633 37.1488254 30.1542683 27.5291916" stroke="#852e2c" stroke-linecap="round" stroke-linejoin="round" stroke-width="1.2"/><g transform="matrix(-1 0 0 1 178 .754902)"><path d="m32.1692075 57.6095433c4.2531502-2.9762524 8.6438769-2.7119549 9.6323751-1.5448612.5542677.6535724-.09099.9699-1.4584968 1.6530822l-.3039181.152268c-1.215266.6118189-2.9019766 1.509418-4.7894971 3.0920501.9493855 1.0103189 1.9558099 2.1094736 2.9797988 3.2194596 3.2918117-2.1774021 6.5602627-2.2969637 7.515168-1.4436373 1.0741476.9588436-1.3872012 1.446471-4.6359866 4.5117243.4212972.4400784.8402221.867984 1.2532434 1.2799099 5.3776503 5.3644584 9.7437473 5.8427786 8.3890624 7.132996-1.3489622 1.2847909-7.6570599.7267575-13.0177878-4.5633191-.3329337.4211105-.6667517.8508448-.999124 1.2818089l-.3936226.5116605c-.130896.1705155-.261438.3408778-.3914979.5107413l-.3886062.5077481c-.0386392.0504892-.0772238.1009025-.1157501.1512308.3343867.3173466.6652023.6278405.9914557.9298138 5.5245668 5.1129183 9.37859 5.8858196 8.4165469 6.8997162-.943252.9952831-6.3411153.0375571-11.7578124-4.8170553-1.7635021 2.1707022-3.1828777 3.6023217-3.7992845 3.0520828-.6766135-.6042876-.144105-2.9210691 1.1174519-5.6846714-1.5317004-1.6145975-2.9572741-3.3110221-4.1411054-4.8818593-1.5049284 1.3172915-2.6435145 2.0328107-3.0816204 1.5154984-.4974123-.5863773.013619-2.2594886 1.1502086-4.3092413-1.0783786-1.7436475-1.5889835-3.0427575-1.2226349-3.4291144.310379-.327338 1.2320043.2377174 2.5236895 1.3251253 1.1259607-1.6625975 2.5329991-3.4060168 4.0599085-4.9324728-.7049216-1.6581006-.9207845-2.9016287-.452546-3.3473514.4465194-.4254478 1.4384555.1657507 2.7602979 1.3417116zm-.1499249 6.3727765-.1988654.1962682c-.0765456.0755283-.1530627.1511534-.2295299.2268346l-.4580307.454434c-.8678936.8628963-1.7237036 1.7224774-2.5355571 2.5183869 1.1473716 1.1047296 2.3945274 2.3426837 3.6634418 3.59267.7052804-1.1650629 1.4971765-2.3195809 2.3438862-3.3837019-.9504074-1.1951439-1.8243268-2.4210963-2.5853449-3.6048918z" fill="#feae76"/><path d="m35.207807 49.6938615s11.9642878-10.9751556 10.6983821-14.9557519c-1.2657295-3.9804206-2.6607265 6.1238862-9.0825384 7.110028 0 0 6.4764071-12.3992702 1.7442306-20.1650272 0 0-3.8803143 11.7630497-5.798017 13.8096762 0 0-.7085056-21.5024963 1.2718935-24.4357893 1.9811036-2.93311722-6.2599633 18.0273614-5.9765963 21.2351783.2823104 3.2088713-2.2766225-27.0892859-.3231687-29.3506808 1.9529254-2.26069189-7.1984735 11.1433498-3.1901245 25.1653339 0 0-5.7818145-26.01614704-9.2151521-27.77085029-3.4340421-1.754879-.2935817 22.44557899 1.0950753 25.87853359 1.3902419 3.4329546-6.1814166-15.6186867-13.25502552-17.38780157 0 0 3.67655071 14.24307947 7.06515542 18.21277927 3.3879003 3.9700512-2.5804187-4.6006477-9.2419214-4.5774485 0 0 15.6160065 14.2726057 19.4251708 17.4465025 3.8093405 3.1747756 5.5664274 7.452392 3.6501337 5.437225-1.9159416-2.0153427-16.24561317-9.929434-20.75923254-5.727215 0 0 13.64494134 4.6027568 17.47594384 6.5263572 3.8304741 1.922546 4.5516599 1.6427496-2.1646142 1.6466161-6.7153935.0040423-10.46732087 2.5730023-10.46732087 2.5730023l17.78748907-.8646975s-8.6505315 2.4719453-8.7227381 10.3957029c0 0-.9879982 3.5355934 1.8676863-.8385106 2.8560368-4.3735767 3.5583784-7.6158409 5.7418367-6.2890926 2.1839867 1.3279785 3.3949448 4.0143406 3.3949448 4.0143406s-.9126214-12.483631 4.4068945-7.5168928c5.3202203 4.9681442 2.571613.4284822 2.571613.4284822" fill="#6abf4b"/><path d="m44.5176346 89.6793395c-1.4891578.2601082-4.8793792.8523409-5.7814463.3169074.1303657-.1203222.3804261-.2970896.8586711-.5110153 1.5988926-.7155629 4.7520369-1.4042303 7.6844664-1.3357529.1838994.0042467.3676208.0010617.5493859-.009555-.6365335.7783782-1.275557 1.2262243-1.8663825 1.303726-.3902081.0513138-.8784128.136601-1.4446946.2356898zm-7.205688-33.8328203c.1911913-.1089977.5534766-.254269 1.1156678-.3160226.5129262-.0562683 1.3031242-.0530833 2.2909161.235513-.6850872.5203933-1.5663456 1.1276663-2.3303993 1.6454054-.3873624-.5536588-.8399966-1.2051679-1.0761846-1.5648958zm2.3746846 5.6107283c-.9835235.6196591-2.0388993 1.3803428-3.1435403 2.2640028-.6705033-.7440509-1.3166409-1.4921716-1.9254295-2.2293218 1.0473725-.7330804 2.1235571-1.4535977 3.1668389-2.152174l.2788725-.1870302c.2898993.4121034.6123457.8696815.9685839 1.3752115zm2.3465839 3.3469022c-.5367584.5235783-1.3207315 1.3023104-2.2688624 2.2836437-.8136745-.8026195-1.6074295-1.6190407-2.3649027-2.431923 1.0438154-.829869 2.0787383-1.570735 3.0176208-2.1604905.509547.7252949 1.0560873 1.5050886 1.6161443 2.3087698zm3.284755-3.5969246c.0668725.1827835-.2979027.94736-1.4446946 1.8871114-.1993725.1631427-.519151.4508542-.9141611.8219065-.4883825-.699284-.9739194-1.3916673-1.446651-2.0642327 1.3522114-.734319 2.1009698-.8983464 2.4959799-.9024162.994906-.0102627 1.2897852.2040169 1.3095268.257631zm-2.3967382 8.8355389c-.1202282-.1066975-.2422349-.2153413-.3658423-.3262854-.623906-.5596749-1.2579497-1.1478379-1.887547-1.7505104.7133658-.737681 1.4302886-1.4597908 2.0956342-2.111123.6964698 1.0043361 1.3381611 1.9382484 1.9119128 2.7822729-.595094.4582859-1.1834295.9298425-1.7541577 1.4056459zm3.901547 3.1740276c-.8867719-.642131-1.8729631-1.4261714-2.936698-2.3344267.4892718-.4046717.9911711-.8058045 1.4978725-1.1970285.8038926 1.1959668 1.4672818 2.2107426 1.9764731 3.0222094-.163802.1578344-.3414765.3262854-.5376476.5092458zm1.9037315-2.0552085c-.0051577.0263647-.0506879.1677432-.4574362.620013-.4949631-.7861638-1.1149564-1.7345854-1.846641-2.8247396l-.0245436-.0364505c.762453-.5616213 1.3264228-.9464753 1.5974698-1.1276663.4090604.3604356.9620034 1.990093.731151 3.3688434zm-.6477383-3.4244039c-.0021342.0012386-.0044463.0026541-.0067583.0038928l-.1394363-.2084405zm-.0441073 6.0796307c.0716745.1231533.137302.238521.1968825.3457493-.1070671-.0644078-.2205369-.1350086-.3393423-.2112716.0483759-.0454747.0956846-.0902416.1424598-.1344777zm-4.1197718 2.0171655c-1.0182047-.7654612-2.0024396-1.5217213-2.9964564-2.3022228.6283523-.6081577 1.2967215-1.2198543 1.9921241-1.8230576.7998021.6854824 1.8957282 1.5949763 2.9582182 2.3822017-.5308893.4796961-1.0751175.9627542-1.6035168 1.4318336zm2.9516375 3.7818315c-.8903288-.1063436-2.3339563-.3949398-4.126708-1.0291083.3738456-.3411487.7789933-.7061849 1.2449664-1.1227119.4328926.3218618.8248792.6111658 1.1777383.8714509.6605436.4873047 1.2631074.9317889 1.7040033 1.2803693zm-8.6790167-3.1674807c.5582785-.6661955 1.1720469-1.3431845 1.8290335-2.0178733.9760537.7677615 1.9409027 1.5109277 2.9370537 2.2617026-.5717953.5129617-1.0751174.969832-1.5295302 1.3883053-1.1282953-.4701411-2.215151-1.0183147-3.236557-1.6321346zm-1.5905336 2.0785652c.2486376-.3602587.515594-.7260026.7969564-1.0917466.9589798.5851549 1.9727382 1.1149263 3.0272248 1.5813516-.4921174.4664253-.9315906.8946306-1.3331812 1.2994793-.8222114-.5361414-1.6584732-1.1366905-2.491-1.7890843zm.5330235 7.3755711c-.1703826-.1033355-.2116443-.2006549-.222849-.324339-.0419732-.4628864.3412987-1.4691689 2.3764631-3.6392143 2.1198221 1.2830234 4.1057215 2.1180238 5.9171476 2.4887222-2.0394328 1.1172266-5.8463624 2.8256242-8.0707617 1.4748311zm-3.4337953-9.8734944c.1927919-.2659474.398745-.5425114.615547-.8259762.6333322.5430422 1.3100604 1.0613122 2.0172013 1.5445472-.2509497.3280548-.4910503.6566404-.7176342.9815103-.6473826-.5409189-1.2899631-1.1112105-1.9151141-1.7000813zm-2.2932282 7.5939204c-.3743792-.1836682-.7597852-2.1348335.5707282-4.8445592.2454362-.5002216.5794429-1.071221.9943725-1.7000812.4670402.4374064.9440402.8656117 1.4210402 1.2752378.1643356.1412016.3380974.2882424.5207517.4400606-.3306275.5327795-.6297751 1.0655589-.8905067 1.5861291-1.5040973 3.0022147-2.4854866 3.3076207-2.6163859 3.2432129zm-.6978926-12.4114071c.7704564 1.119173 1.6673658 2.1739382 2.6715201 3.1414699-.2077315.270017-.4065705.5343719-.5942047.7898795-1.0126913-1.0105291-1.9414362-2.0360985-2.765604-3.0537055.2171577-.2878884.4476544-.581616.6882886-.8776439zm-2.9443457-2.3866253c.1630907-.4043179.3375638-.791826.5209296-1.1577469.509547.7053002 1.0767181 1.5252603 1.6908423 2.4446631-.2637551.3169073-.5173725.6329299-.7580068.9439981-.5906476-.7973113-1.0786744-1.5461397-1.4537651-2.2309143zm-1.1467919 5.954708c-.0145839-.0729011-.0282785-.1661508-.0378826-.2843496-.081812-.9979661.160245-2.5395052.6383121-4.1173179.3523255.552951.7608524 1.1347441 1.2195336 1.7361779-.3325839.4743878-.632443.9376281-.8931745 1.3791042-.4462316.7564371-.7496477 1.1166958-.9267886 1.2863854zm.8303926-8.2351667c-.1323221.2376362-.2610872.4857122-.3855839.7419276-.3747349-.9496603-.5799765-1.5962149-.6920235-2.028313.256641.2714326.6064765.6778738 1.0776074 1.2863854zm4.2060302-2.8415493c.3224463 1.0919236.7622752 2.1624369 1.3102383 3.1890679-.7526712.7352038-1.4676376 1.4820859-2.1306712 2.2254291-.6866879-1.020792-1.311661-1.9120606-1.8617584-2.654696.2977249-.4558087.6086108-.8516332.9255437-1.1788033.4700637-.4851813 1.0470167-1.004513 1.7566476-1.5809977zm.7935772-2.2070268c-.0460638-.2815184-.0835906-.5617983-.1124027-.839247.1504631.1951696.3030604.391047.4576141.5865705-.1157819.0842255-.2310302.168628-.3452114.2526765zm2.1059497 5.6250607c.6066543-.5683452 1.2341174-1.1262507 1.8685167-1.6611535.7916208.8509254 1.6213021 1.7043279 2.4714363 2.5425133-.6866879.7252949-1.3509665 1.4452814-1.9800302 2.1452732-.9093591-.9328505-1.7018691-1.9492189-2.3599228-3.026633zm3.269104 3.8973762c.6272852-.6982224 1.2897852-1.4159087 1.9741611-2.1387263.687755.657879 1.3812013 1.2993023 2.0639765 1.9090525.0281006.0247722.059047.0525525.0931946.08281-.7090973.6194821-1.3902718 1.2471037-2.0298289 1.8708325-.4460536-.3553042-.9111375-.7290107-1.3954295-1.122181-.2408121-.1955235-.4775335-.397417-.7060738-.6017877zm-6.264849-.8112899c.6383121-.7284798 1.3306913-1.4627989 2.0629094-2.1879168.6930906 1.0944008 1.5160134 2.1275788 2.4515168 3.0772391-.690245.7888179-1.3301577 1.5477322-1.9067551 2.2617026-.9879698-.9671778-1.8642483-2.0258358-2.6076711-3.1510249zm6.1693423 2.3903412c.4494329.3648592.8825033.7130857 1.2990335 1.0455641-.6856208.7083082-1.3260671 1.4196245-1.908 2.1199702-.7117651-.4828811-1.391161-1.0034514-2.0244933-1.5510941.5684162-.7067157 1.2028155-1.4608525 1.8903927-2.2471932.240812.2151643.4898053.4273206.7430671.632753zm-3.8074631-6.6136488c-.4798456-.9487755-.8609832-1.9347094-1.1341644-2.9353297-.0174296-.0638769-.0341477-.127223-.0505101-.1902152.268557-.2027782.5541879-.4138728.8524463-.6304527.626396.7605068 1.2912081 1.5319842 1.9807416 2.2985071-.5575671.4710258-1.1101543.9595691-1.6485134 1.4574905zm.7944664-16.0132862c-.8848154-1.5877216-2.0538389-3.6710643-3.3466476-5.9366597.6118121-1.2888626 1.2090403-2.6918543 1.7397517-3.9378964.3665537-.8606573.7695671-1.8073095 1.0889899-2.4821752.307151 1.2019829.6930906 3.2035773.9362148 5.2290592.5340906 4.4388259.1477953 6.5784369-.3919866 7.1007766-.0090705.0086702-.0177853.0176944-.0263222.0268955zm-5.3908825 7.1237793c-.4307584.9071937-.9815671 2.0670638-1.4000537 2.8532276-.0154732-.1516413-.0289899-.3018671-.040906-.4342215-.0435739-.48642-.0862584-.9593922-.171094-1.3693722.1983054.1008582.3212013.0865258.4277349.0743166.2703356-.0313192.4903389-.2043707.589047-.4623556.1180939-.3100065.0965738-.7677615-.0393054-2.4421858-.0869698-1.0749369-.1954597-2.4128131-.1837215-3.4987205.0142282-1.3201818.1997282-1.646998.2379665-1.7004352.215557-.1226224.4181308-.2645318.615547-.4027253.9404832-.6573483 1.4591006-1.020438 2.722208.6341685.2995034.3922856.5726846.7468821.8186544 1.0664436l.0154731.0199947c.2070202.2689554.4088826.5311869.593849.7741315-.3585503-.1263383-.7514262-.1953466-1.1530168-.1051049-.6534295.1489871-1.2017483 1.1382829-3.0323825 4.9928385zm-1.8361477-.8926842c-.6105671-.7436971-1.4591006-1.8924198-2.2558792-3.0643222-.1700268-.2498454-.4956745-.3450414-.7743691-.2263118-.5933154.2523227-1.1375436.5487044-1.6385537.8790595-2.9662215 1.9559428-4.3854832 5.0864422-5.1655436 7.1064388-.0030235-.5028758.0369933-1.1338594.1755403-1.8556154.3037718-1.583121 1.1437684-3.8370381 3.4213456-5.5861329.6098557-.4685486 1.2716443-.8636653 1.9661577-1.1745566.9207416-.4119264 1.7182316-.5982488 2.2462752-.721402.6345772-.1482794 1.1355872-.2654166 1.1962349-.814121.0248993-.2254271-.032547-.4062642-.1849665-.5715302.0275672-.2371054.0403725-.4740339.0382383-.7081313.6592987-.1293463 1.2896074-.4156422 1.8777651-.8525178.6770839-.5039375 1.4311779-1.5567564 2.2992752-3.2122477.8247013 1.4502359 1.5926678 2.8146537 2.2510771 3.9908028-1.9264966-2.3793706-3.3562516-1.3783965-4.3111409-.7107854-.1863893.1304079-.3624631.2535612-.5314228.3485803-1.0550201.5904633-.9538222 2.9151581-.6719262 6.3899911.0206309.254446.0426846.5257017.0618926.7828018zm-6.5262919-9.912953c-1.717698-1.0724597-10.5455772-4.1627926-15.29103357-5.7880264 4.50873487-.2459527 10.32539597 1.319297 17.31606037 4.6623065.7635202.7964265 1.653849 1.8421676 2.046547 3.0621988-1.3091711-.2110946-2.6243892-1.0326472-3.8997684-1.8292506zm-10.4641208 3.5541041c.5694832-.3563659 1.1572852-.6706191 1.7561141-.9385128 3.1604362-1.4070614 6.2621812-1.373442 9.2186208.0997966.3772248.1879149.7247483.3590201 1.0393691.5129617-1.4190839-.0130939-3.2123691-.0184023-5.0374899.0058391-2.9690671.0396356-5.3081812.1470408-6.9766141.3199154zm-2.41985908-24.4492848c1.12135906 2.2622335 2.05828528 3.7860782 2.78498998 4.5292444 2.6508892 2.712026 7.0874161 7.2508253 11.826114 10.3715927 3.0080168 1.980715 4.1487618 4.4310403 4.4681846 5.5643688-.0332584-.0176944-.0672282-.0355658-.1013758-.053791-.7076745-.3760068-1.887547-1.0029206-3.3366879-1.7045049-.2338759-.2381671-.467396-.4681947-.696292-.6936218-.4298691-.423074-.835906-.8229682-1.1396778-1.1839346-1.2743121-1.5148206-14.57126514-13.9049944-19.48692622-18.4736974 1.72552349.2415291 3.63263423.7932415 5.68167114 1.6443438zm-4.48081208-14.7599894c2.13725168 1.9469186 7.10395636 7.0683957 11.62229526 12.1316581.1486846 2.0065489.2785168 3.4171492.3758021 4.0829908.0597583.4089184.1506409.8611881.2671342 1.3327448-.4097718-.2739099-.8270134-.5432192-1.2469228-.8045659-1.2931645-.8049199-3.3105437-1.9677981-5.61213091-2.9620484-.80478188-1.6528371-1.66060738-3.5926779-2.54471141-5.7676778-1.40378859-3.4532458-2.42323825-6.4138786-2.86146644-8.0131016zm17.27586576 23.4750292c.1547316.216226.2379665.3698137.2826074.4719106-.1287651.0153941-.3005705-.0070778-.5292886-.1320005-.6450705-.3519423-1.3980973-1.3297367-2.0918993-2.6918543 1.0624899.8971078 1.892349 1.7292771 2.3385805 2.3519442zm6.7580336 13.4935988c-.4074598.3034595-.8277249.5007525-1.2785806.5998413-.1419261-.5752461-.3782919-1.1428835-.7149664-1.7156524.2719362.1412016.5463624.2852343.8211443.4312134.8129631.4319211.9547114.5037605 1.1071309.5377339.0752315.0168097.150463.0217641.2235604.015925-.0540672.0490135-.1067114.0927188-.1582886.1309388zm-15.859094-18.5589845c-.4746879-.4853584-1.1067752-1.4523592-1.84308388-2.8166001 2.20021138 1.0655588 4.49183888 2.4377622 6.53109398 3.9141858.9762315 2.7086641 2.30301 4.7295454 3.5563355 5.4137892.6247954.3411487 1.2615068.3841462 1.8413054.1245688.4736208-.2116254.6977148-.6808818.584245-1.223924-.2290738-1.0933391-2.0650436-2.9997375-4.9169061-5.1062599-.3242248-.9514297-.5572114-1.8773795-.6749496-2.6822993-.0695403-.4754495-.1504631-1.2570126-.24099-2.3289415 2.4251947 2.7736026 4.272547 5.0506994 5.3618927 6.6109946 1.6495805 2.3629148 4.4034463 6.9025989 7.9670738 13.1331631-.528755 1.0738753-1.0075336 1.9196692-1.4327785 2.5320736.0780771-1.3967986-1.3011678-4.8594225-5.1162786-7.3715014-4.6248724-3.0459199-9.0018187-7.5236735-11.6169597-10.1992489zm12.806792.2309123c.3254698-.082456.5305335-.4037869.4663288-.7318418-1.3940067-7.127849-.4608154-13.524564.5677047-17.6356889.4761108-1.90303639 1.0158926-3.50491354 1.4783087-4.71556674.0862584 5.46191804.1625571 17.81652604.2039967 27.31419064-.0177853.4299748-.0158289.8303998.0056913 1.1901277.0206308.3434489.3073288.6037341.6530738.5927635.3455671-.0109705.6151913-.2889501.6139463-.6329299l-.0051577-1.1186421c.1977718-4.6370035 2.8828087-12.9583422 4.5149597-17.6363967-.3704664 6.7160995-.9223423 18.703548-.9895705 20.1704166-.0140503.3098296.1970604.5812622.5017215.645493.3048389.0645847.6084329-.0983811.7224363-.3875081 2.8484832-7.2612651 4.3941979-10.8220931 5.1625201-12.4878471 1.5279295 6.0000057-1.5871544 16.3351479-2.169443 18.1735997-.3258255-2.3841481-.9493758-5.5921491-1.4178389-6.145454-.1623792-.1912769-.4060369-.2832879-.6518288-.2461296-.0677618.0102627-.1305437.028488-.1920806.0560913-.0389497.0173406-.0768322.0380431-.1145369.0628153-.4305805.2838187-.8177651 1.1142185-1.9880336 3.8623411-.4087047.9597461-.8652516 2.0318519-1.3436745 3.0818397-3.4122751-5.9439145-5.9635671-10.1337796-7.5850469-12.4567049-1.2367853-1.7717437-3.5668289-4.6016146-6.5648859-7.973643-.4042584-5.5981652-.8410638-14.38982187-.8908625-18.74725329 1.720188 4.87534752 5.353 16.12529199 8.2612417 25.34338449.1008422.3192076.4350268.5046453.7610302.4225431zm20.1672114 7.8350956c-1.905688 4.8480981-5.9934463 9.1494382-8.1803188 11.216502.1593557-1.341769.1132919-3.1287299-.1374799-5.3295637.007292.0054853.0145839.0109706.0220537.016102.2301409.1613732.5340906.155711.7565839-.019287zm7.261 45.0878961c.0835906-.2724942.1662919-.5485274.2470369-.8323461 1.6262819-5.7153024.7788154-14.7217695-4.780849-21.9587932-1.4039665-1.8273042-2.9199799-3.1931376-4.5094463-4.0635268.0851913-.1470408.1365906-.2868268.1556208-.422897.0352147-.2503763-.0330806-.4917284-.1922584-.6794663-1.0098456-1.1894199-5.280792-1.640628-6.7571443-1.6455824-.1874564-.3404409-.4860705-.8813598-.8728993-1.5781666.1004865-.0182253.1979496-.0608689.2834966-.1286385.091594-.073255 2.2713524-1.8265965 4.7018826-4.5665797 4.1194161-4.6431965 5.7103053-8.450508 6.3196275-10.8266936.0670503-.2617007-.0407282-.5366722-.2680235-.6842438-.2274732-.1475715-.5241309-.1355393-.7375537.0322039l-7.5871812 5.9209117c1.284094-4.4597053 3.4562047-13.715487 1.1451913-18.8270552-.0972853-.2149874-.3044833-.3570737-.540849-.3708754-.2363658-.0138016-.4588591.1031586-.5806879.3048751-.0400168.0663542-.9788994 1.6561991-4.5021544 10.4639577.4455201-9.5017343.9753423-20.1084861 1.0969933-20.7141666.0649161-.3238081-.1262752-.6373535-.4449866-.7291876-.3188893-.0920111-.6493389.0707777-.7683221.3791917-.1392584.3597279-3.1387383 8.1410323-4.8873826 15.0912292-.0499765-9.1124567-.1413926-22.26012929-.2550403-23.11760159-.0362818-.2737329-.2441912-.48995889-.5173724-.53844164-.2730034-.0483058-.5431611.08316385-.6722819.32770093-.0624262.11784493-1.5400235 2.94329222-2.6939296 7.5447299-.6970033 2.7789109-1.4390033 6.9569208-1.2976107 11.80148-.7009161-2.1949946-1.5770168-4.9263075-2.4621879-7.6560279-4.5338121-13.98214209-4.8514564-14.2726847-5.0833759-14.48484097-.2127114-.19410795-.5123926-.23409737-.7640536-.10191995-.3905638.20490156-.5531208.29018873-.4791343 4.29249285.0382383 2.06352494.1437047 4.88614112.3050168 8.16279647.1369463 2.7805034.3018154 5.6381546.4691745 8.1351932-.9963289-1.1014785-2.0451242-2.241531-3.1252215-3.3973314-2.38464427-2.5513605-8.03447984-8.50606853-8.98972481-8.69610676-.30999664-.06157663-.60861073.07803246-.76049664.35601202-.14121477.25798485-.31675503.57878495.67263758 3.62682824.57321812 1.7660815 1.39240604 3.9854944 2.30656712 6.2493203.40265772.9965506 1.18289597 2.8820695 2.09972483 4.8599534-2.42786242-.8898531-4.65706376-1.3527395-6.63371476-1.3771578-.25984229-.003185-.4994094.155711-.59633893.3958245-.09675168.2399365-.03414765.5198624.15615436.696099.18265436.1695127 17.43095305 16.1769597 20.36871815 19.2273033-1.2456779-.5306561-2.4625437-1.0034514-3.6301443-1.4102464-5.6647752-1.9739911-10.41467788-2.5182719-14.11720808-1.6181561-.27300335.0658233-.47166443.3066446-.48358053.5856858-.01209396.2786874.16504698.5356106.43075839.6247905.13979194.0468903 12.84787582 4.3255814 16.67828192 6.0801616-3.0944531-.7366193-5.8314229-.0203486-7.7419128.8344695l-.0197416.0088472c-2.59575504 1.1660632-4.20745303 2.788112-4.27485907 2.8565895-.23174161.235159-.24134564.6127583-.02187584.8594187.2191141.2464835.59473826.2836418.86009396.082633.86756376-.6578791 8.23331875-.8889684 15.29992615-.7858098-.8938859.3147839-1.9663355.8158903-3.0782684 1.6703546-2.5920202 1.9904469-3.5472651 4.5508316-3.8921208 6.3480553-.4079933 2.1263401-.1143591 3.8614564.2244496 4.4144075.230141.3758297.5860235.3724678.6895336.362382.5248423-.0502522.6856208-.4827042 1.0740503-1.5277375.7190571-1.9341786 2.2025235-5.9244505 5.9137685-7.7657334.8463993 1.2271091 1.484 2.0753802 1.9707819 2.6601813-.0866141.0247722-.1796309.0628152-.2790504.1169602-1.7826141.9790331-6.2266107 7.7905056-3.4921309 16.4968751 1.5818188 5.0372516 3.480037 8.9625849 5.6418323 11.6666484 1.82601 2.2843515 3.89301 3.7644909 6.1522684 4.4087453.2047078-.7843718.0258399-1.2919583-.5366037-1.5227593-4.0855229-1.6765114-7.4570414-6.680449-10.0472117-14.928995-2.0006611-6.3699964.1511745-11.1390004 1.1690235-12.8935805.5561443-.9586844 1.0703154-1.5602952 1.4100134-1.8766717.0690067.3547734.112047.833054.1458389 1.2104763.1068893 1.1895968.1911913 2.1291713.9486645 2.2972684.728661.1633196 1.0747617-.44183 2.9018389-4.2896618.6048758-1.2739992 1.8388154-3.8727808 2.2505436-4.3114258.2849195-.0077856.6900671.2082634 1.0206946.3843231.3823826.2040168.7124765.3800764 1.0703155.394055.3813154.0157481.5892248-.1771213.6852651-.3075292.1097349.0596302.2370772.0867027.3674429.0736088.7608524-.0766169 2.6985537.1245688 4.2030067.4627095-1.6239698-.2510841-2.8472382.1054588-3.4142315.4425378-.9401275.5575516-.6980705 1.230294-.6397349 1.3592864.0819899.1817219.4343154.7095468 1.3280235 1.9877928l-.2617987.1753518c-1.0710268.7171555-2.176557 1.4573136-3.2548758 2.2135738-.5828222-.7357346-1.1378993-1.4730617-1.6518926-2.193933-.1517081-.212864-.4238222-.311422-.678151-.2452448-.2537953.0665311-.442141.2850573-.4695302.54375-.0067584.0642308-.1581108 1.5652496.2915 3.7434345-.9643155.7571449-1.7280135 1.4298873-2.332 2.0530852-.2799396.2887732-.5557886.6239058-.8229229.9992047-.1145369-.1426171-.2246275-.2769179-.3293825-.4011328-.9682282-1.1499613-1.7048926-1.7920923-2.3857114-1.4403269-.7067853.3706984-.4522785 1.4088308-.3293826 1.90746.1753624.7109624.5086577 1.6639846.9906376 2.832525.0791443.1914538.169849.3915779.2706913.5964794-.1643356.4474923-.3149765.9105556-.4485436 1.3782195-.6331544 2.2165818-.8063826 4.1769482-.4522786 5.1161688.2465034.6541632.7231477.7635148.916651.7801476.6918457.0598072 1.3628826-.5522433 2.2436074-2.0451227.186745-.3161996.3957215-.6456699.6231947-.982395.8412416 1.01743 1.7767449 2.0375141 2.7869463 3.0386652-.5116812.7576757-.9182517 1.4420964-1.2099296 2.0362755-1.3995201 2.8505734-1.395963 5.8407559.0074698 6.5297772.8800135.4317442 2.3421376.1210299 4.3122081-3.8117351.221604-.4423609.4730872-.8951614.7494698-1.3488467.7649429.5966563 1.5330872 1.1511999 2.289849 1.6533679-1.8331242 1.9805381-2.6441309 3.3968006-2.5489799 4.444488.049443.5448117.3347181.9900037.8250571 1.287801 3.8926543 2.3637995 10.7115134-2.244716 11.0014127-2.4430706.2278289-.1558879.3274262-.4377603.2479262-.7008765-.0793222-.2634702-.3183557-.4441303-.5947383-.4494387-1.9873221-.0389277-4.3178993-.8406625-6.9312617-2.3837942.4524564-.4524467.9499094-.9326736 1.5106778-1.4581983 2.8394128 1.0821916 5.4821209 1.5279144 6.4217148 1.3315062.5296443-.1109441.6443591-.4667792.6690805-.6145277.1214732-.7272413-.454057-1.1517308-2.876406-2.9386917-.2952349-.2176415-.6176812-.4556317-.9687617-.7162707l.1465503-.1298771c.7448456-.6608872 1.3226879-1.1759722 1.8329463-1.6377969 1.5284631 1.0133603 2.0842517 1.0478644 2.3702383.9825719.3183557-.0723702.549208-.3156687.6025637-.6345224.042151-.2512609.0899933-.5347258-.9458188-2.2847053.6500504-.6890213.9579128-1.1524386 1.0215839-1.5323381.2959463-1.7678509-.3564161-4.0392855-1.3424295-4.6736309-.4031913-.2594004-.8752114-.2615238-1.2634631-.0054853-.2338758.1550032-.8380403.5625061-1.6812383 1.1828729-.6006073-.88366-1.2581275-1.8395134-2.0015503-2.9093189.4352047-.4108647.7834396-.7258257.9908154-.8956922.872188-.7146782 2.2697517-2.0928977 1.8299229-3.2929343-.269802-.7359115-1.1156678-1.1016555-2.5141208-1.0869691-.79749.0081394-1.8786544.3855617-3.2157484 1.122181l-.7090973-1.0066363c-.327604-.4646559-.6507617-.9232956-.9563121-1.357694 1.3276678-.8985234 2.303188-1.5854213 2.9573289-2.1422652 1.5345101.772716 3.0106846 2.0732569 4.3897517 3.8681803 5.2932416 6.8903898 6.1085168 15.4362707 4.5681376 20.8489982-.6500504 2.2841746-1.4238859 4.2482568-2.2409396 5.6892915-.4796678.1298772-.9767651.1898613-1.479198.178183-3.4432215-.0805097-9.0871879 1.0207919-9.8288322 2.7074254-.1808759.4113956-.0949732.8562337.2296073 1.1899507 1.050396 1.0798914 3.6883021.7192788 7.0280135.1358933.5522315-.0966116 1.0290537-.1799524 1.3906275-.2273735.2824295-.0371583.5668154-.1190835.8446208-.2436524.1814094-.0810405.361396-.1806601.5399597-.2983281.4432081-.2923121.8773457-.6991071 1.2999228-1.2133074 1.7257014-2.2705498 3.1335806-6.7171612 3.1335806-6.7171612z" fill="#852e2c" mask="url(#a)" transform="translate(0 .245098)"/></g><path d="m163.427495 102.712812c-2.357365 2.509022-7.419279 31.322906-5.716087 33.490337 1.703192 2.167432 19.656459-19.970304 19.656459-22.322036s-11.583006-13.677323-13.940372-11.168301z" fill="#ffcd00"/><path d="m194.998251 47.7739142c-.571499.1531325 2.837522 4.9795463 9.05524 7.4613886 4.145145 1.6545616 2.26743 6.7856531-5.633146 15.3932746 4.417342-.0310664 8.013838 4.1137422 10.789488 12.4344258 4.163474 12.4810254-16.527582 7.2857723-24.997727 14.6095371-5.646763 4.8825097-3.676235 12.2366217 5.911585 22.0623337l-18.012781 29.928276 30.274628-17.321074c3.111683.308311 4.249245-.053821 3.412685-1.086398-1.254839-1.548865-16.803788-15.49282-15.674532-20.149211 1.129256-4.656392 2.620312-9.668431 7.01275-12.0221278 4.392437-2.3536966 6.859258-2.3536966 10.646203 0 3.786945 2.3536968 5.29943-6.0125659 13.846095-1.8349166 5.697776 2.7850994 6.002931 8.1367284.915464 16.0548854 1.705014 2.865424 2.190073 5.953344 1.455176 9.26376-1.102345 4.965625-8.715106 7.967996-14.144107 5.323763-5.429-2.644234-4.406391-10.449519 0-14.587523 4.406391-4.138005 0-12.317277-6.173532-10.928576-6.173532 1.388702-7.984029 6.056615-4.397753 12.611061 3.586277 6.554446 11.913493 1.278967 15.755297 7.581275 3.841803 6.302309 1.124829 18.005565 3.841803 19.813288 2.716975 1.807723 8.8995.355706 4.906783-4.912377s-3.685299 19.993582-.822556 12.930603" stroke="#852e2c" stroke-linecap="round" stroke-linejoin="round" stroke-width="1.2" transform="matrix(-.25881905 -.96592583 -.96592583 .25881905 346.98251 266.249044)"/></g></svg>