<svg fill="none" height="76" viewBox="0 0 391 76" width="391" xmlns="http://www.w3.org/2000/svg"><ellipse cx="378" cy="36.5" fill="#ffcd00" rx="4" ry="3.5" transform="matrix(-.46947156 .88294759 -.88294759 -.46947156 587.687838 -280.118478)"/><path clip-rule="evenodd" d="m131.298 60.9662c-6.19-1.5712-17.33-11.7167-14.495-19.7608 2.834-8.0442 8.97-3.2652 8.97-.975s-.974-7.0692 4.667-6.04 6.909 5.6298 6.909 11.1812c0 5.5513.139 17.1659-6.051 15.5946z" fill="#ffcd00" fill-rule="evenodd"/><path clip-rule="evenodd" d="m42.5775 43c-19.8727-4.1777 1.1079-22.2264.4051-.4887z" fill="#d6a285" fill-rule="evenodd"/><path clip-rule="evenodd" d="m69.0442 43c9.9445-5.2662-6.9669-21.5965-3.5838-2.5386z" fill="#d6a285" fill-rule="evenodd"/><path clip-rule="evenodd" d="m82.5093 43c11.291-17.649-5.291-16.5-3.3594-5.2662z" fill="#d6a285" fill-rule="evenodd"/><path clip-rule="evenodd" d="m55 43c-11.2427-4.389-1.0279-19.5527 4.5-2.9222z" fill="#d6a285" fill-rule="evenodd"/><path d="m390 53c-16.665 0-16.992-11.5803-13.084-17.6488s11.578 2.0072 3.11 4.6728c-8.468 2.6655-15.496-5.6741-13.959-14.0164 1.536-8.3423.289-19.55627-16.123-14.9246-16.411 4.6317-18.944 1.5945-18.944 1.5945" stroke="#852e2c" stroke-linecap="round" stroke-linejoin="round" stroke-width="1.2"/><path clip-rule="evenodd" d="m195.304 22.7975c-3.813-1.1715-12.167-6.4103-8.311-12.3222 3.856-5.91194 10.901 9.6934 10.901 11.4009s2.637-10.6321 7.083-12.42884c4.446-1.79677 6.023 2.12814 6.023 6.26714s-11.883 8.2545-15.696 7.083z" fill="#c68b66" fill-rule="evenodd"/><path clip-rule="evenodd" d="m321.539 21.9398c-6.645-1.6867-21.205-9.2298-14.485-17.74207 6.721-8.51225 18.999 13.95697 18.999 16.41547 0 2.4586 4.596-15.30846 12.345-17.89552 7.748-2.587067 10.498 3.06415 10.498 9.02362 0 5.9595-20.711 11.8852-27.357 10.1985z" fill="#feae76" fill-rule="evenodd"/><g stroke="#852e2c" stroke-linecap="round" stroke-linejoin="round" stroke-width="1.2"><path d="m323.417 41.3554.005.0619c.272 3.8753.287 11.6546.506 14.7526.22 3.0979-.06 4.3601.24 5.374l.037.1162-.063.017c-4.903 1.3579-6.038 1.698-15.652 3.4835s-9.614 0-9.885 0c-.209 0-.587-15.2072-.856-22.2119-.017-.4362-1.062-1.8654-2.491-2.7272l-.053-.0319"/><path d="m349.951 44.3203.003.2524c.107 11.1086-.343 17.0288-1.349 17.7605-1.841 1.3385-16.629 1.4739-21.075 1.4739-1.721 0-2.829-.7282-3.324-2.1848l.745-.1231c1.672-.4453 2.256-.6783 2.544-.7051 0 0-1.612.418.035-.002s.054-10.9297-.639-19.1675l-.031-.3614"/><path d="m323.451 42.9514-.017-.2299c-.441-5.613-.997-8.4195-1.67-8.4195-1.741 0-24.958.9486-25.809-1.5063-.852-2.4549-.855-8.8995-.553-10.8091.303-1.9095 23.452 1.6827 24.498.8414s4.499-.9974-4.587-2.2148c-9.087-1.2174-14.84-7.3087-14.84-11.99031 0-4.68163 5.015-9.272548 13.283-5.94329 5.303 2.13579 9.875 11.5404 12.297 17.9336.26.6875.523 1.3543.746 1.9653l.034.0959.139-.049c1.052-.37 2.329-.7512 3.694-1.151l.132-.0386.036.0039c5.659.6195 22.979-.3052 24.394-.3052 1.06 0 1.407 4.6208 1.042 13.8624-17.985 1.3309-28.029 1.5172-30.131.559l-.02-.0098.012.0514c.291 1.3128.634 4.2673.949 7.765l.004.0477"/><path clip-rule="evenodd" d="m349.977 11.2969c-2.298 4.1895-8.183 7.1192-13.902 9.1033-1.558.5406-3.209 1.0445-4.755 1.5228l-.055.0168-.149-.0184c-.54-.0694-.959-.1556-1.228-.2614l-.085-.036c-2.621-1.2238-1.526-10.8408 5.432-17.10744s19.544-1.97491 14.742 6.78034z" fill-rule="evenodd"/><path d="m97 51.0246c21.35 28.7923 36.764 10.951 36.764 10.951-18.387-3.8094-17.776-17.343-13.484-21.9408s10.417.6308 9.918 4.2525-5.088 6.1184-3.018-2.3496c2.069-8.4671 12.506-5.5616 12.611 1.8624.493 2.9698.214 6.0347-.92 8.8239-4.427 10.8994-6.035 29.5253 11.258 19.7312 17.293-9.7942 29.848-16.4105 29.848-16.4105"/><path d="m1.17346 70.6809s4.53331 2.1133 21.82654-7.6809c17.2933-9.7942 22.5603-18.8639 19.2512-26.9967-3.3091-8.1329-7.2772-2.0407-7.2772-2.0407s-3.7029 7.0722 2.5224 9.3247 24.5645 2.9177 20.5036-5.7873c-4.0608-8.705-7.5175-3.5374-7.5175-3.5374s-4.7869 11.3247 10.5667 11.3247c15.3535 0 9.9362-12.4871 9.9362-12.4871s-2.2505-2.6177-4.8166-.4807c-2.5662 2.1371-5.6249 11.3568 4.8166 12.9678 10.4414 1.611 10.9117-1.1065 10.9117-1.1065s10.5442-13.8613 2.6029-13.8613c-7.9412 0-6.5248 7.7153-6.5248 7.7153s4.6067 12.3069 16.058 4.9029"/><path d="m94.7846 40.404c-.0018-.6919-1.0193-27.4225-1.369-27.9916-.4899-.7979-1.4554-.9978-2.3205-1.1037-6.3846-.7828-55.3149-.0715-61.4614 2.0745-.5877.2056-1.2004.4444-1.6106.9577-.2418.3034 1.4903 29.0909 1.6106 40.9278.0125 1.2391.9057 2.6142 1.6936 3.4829.6264.6913 1.5608.8819 2.439.9991 3.5821.4769 49.6334.2682 53.162-.6143.7723-.193 1.5682-.4356 2.1697-1.0115 3.9013-3.7386 6.2081-11.24 8.3467-9.1003"/></g><path clip-rule="evenodd" d="m288.993 42.6253c-1.922-1.5211-4.288-4.8457-2.144-9.2952 2.144-4.4496 6.429 3.5331 6.868 5.4356.438 1.9026-2.802 5.3806-4.724 3.8596z" fill="#feae76" fill-rule="evenodd"/><path clip-rule="evenodd" d="m261.83 52.2036c1.156-4.3993 1.298-7.4169 7.093-9.334 5.796-1.9171 6.399 2.4118 3.678 6.6276-2.72 4.2157-11.927 7.1057-10.771 2.7064z" fill="#bf5627" fill-rule="evenodd"/><path d="m217 50.8151c29.248 23.614 21.53 9.9783 27.777 8.2449 6.248-1.7334 9.381 6.3036 13.857.7524 4.476-5.5513 6.844-14.0555 9.185-15.5818 2.616-1.7059 7.205-.4384 6.364 3.4727-.094.4409-.261.8617-.47 1.2517-2.156 4.0388-4.815 6.6849-9.003 7.17-2.793.3235-4.436-9.8607-4.931-30.5523-.277-1.7192.641-3.4043 2.146-3.9362l11.766-4.4705c1.801-.6363 3.69.6204 4.027 2.677l3.056 18.6261c.212 1.2909.784 2.4758 1.654 3.3642 1.51 1.5397 4.213 3.1897 7.996 1.235 6.107-3.1563-5.297-15.7956-5.349-6.4996-.093 16.9779 8.372 14.2464 8.372 14.2464" stroke="#852e2c" stroke-linecap="round" stroke-linejoin="round" stroke-width="1.2"/><path d="m177.685 30.1897v-6.2068s-.435-2.0242 3.234-1.28c3.668.7441 11.754 1.7751 17.361 1.28 5.607-.4952 13.865-1.0797 14.76-1.4785.896-.3988 2.741-1.7756 2.741 2.6293v5.056s1.636 1.6695-13.837 1.6695-17.38-.7491-22.423 1.6194c-5.042 2.3684 0 22.7873 0 22.7873s30.217 1.7409 35.058 0c4.842-1.7409 0-22.2152 0-22.2152" stroke="#852e2c" stroke-linecap="round" stroke-linejoin="round" stroke-width="1.2"/><path d="m211.163 17.5837c-1.027 1.8713-3.221 3.3325-5.692 4.4581-.92.4188-1.877.7911-2.828 1.1208-.955.3313-1.967.6401-2.914.9332l-.034.0103-.091-.0113c-.331-.0425-.588-.0954-.753-.1602l-.051-.022c-1.607-.75-.936-6.6437 3.328-10.4841 4.264-3.84045 11.978-1.2103 9.035 4.1552z" style="fill-rule:evenodd;clip-rule:evenodd;stroke:#852e2c;stroke-width:1.2;stroke-linecap:round;stroke-linejoin:round"/><path d="m185.162 17.5837c1.408 2.5675 5.014 4.363 8.519 5.5789.955.3313 1.967.6401 2.914.9332l.034.0103.091-.0113c.331-.0425.588-.0954.753-.1602l.052-.022c1.606-.75.935-6.6437-3.329-10.4841-4.264-3.84045-11.977-1.2103-9.034 4.1552z" style="fill-rule:evenodd;clip-rule:evenodd;stroke:#852e2c;stroke-width:1.2;stroke-linecap:round;stroke-linejoin:round"/></svg>