<svg height="109" viewBox="0 0 325 109" width="325" xmlns="http://www.w3.org/2000/svg"><g fill="none" fill-rule="evenodd"><g transform="translate(1.760905 55.283232)"><path d="m.23909492 33.7167683c39.71638408-34.4249275 59.81555028-1.1666344 75.14586908-3.7610128l.4631107-.0896984c15.3893874-3.3628672-9.6812994-24.78581885-3.6089798-18.3105383 6.0723197 6.4752805 18.8949071-19.06724827 27.158434-8.33744522" stroke="#852e2c" stroke-linecap="round" stroke-linejoin="round" stroke-width="1.2"/><ellipse cx="228.239095" cy="44.716768" fill="#ffcd00" rx="3" ry="6"/></g><g transform="translate(100.783713 46.227815)"><path d="m6.49687206 16.6550275c2.16134897-3.7519112 18.73939674-9.79565495 32.21941504-5.2680855 2.8769739.9662968.1781755 12.5937524 2.0715132 16.2387364 2.0227237 3.8940732 8.6264079-.2069262 11.4752138 0 11.6315276.8448686 19.8659247-13.5971995 19.8659247-10.9706509 0 6.6933474 3.1810942 29.4824675-28.8510844 34.555526s-41.90854125-25.6545362-36.78098234-34.555526z" fill="#6bc4e8"/><g stroke="#852e2c" stroke-linecap="round" stroke-linejoin="round" stroke-width="1.2"><path d="m.37472114 12.2734899c-.92339755 30.3324632 12.09110266 45.4986948 39.04350076 45.4986948 26.952398 0 40.7480123-14.085855 41.3868429-42.2575648-.839267-4.8927238-3.1082723-4.5045645-6.8070159 1.1644779-5.5481154 8.5035636-8.2031951 32.6456334-35.7613486 30.3590877s-27.2171211-16.3199415-30.41520065-30.3590877c-3.19807956-14.03914624 14.19476395.8130153 21.99514935-3.1070527 5.2002569-2.6133786 9.406068-3.1849084 12.6174335-1.7145893-2.9415483 10.0674759-2.9415483 15.1012139 0 15.1012139 2.9415482 0 5.4188079-.9072317 7.4317791-2.721695 3.9456119 3.8949181 6.2520786 4.2752079 6.9194002 1.1408695.6673216-3.1343385 2.0721446-4.6309691 4.2144691-4.4898918 4.5536861-.4930348 6.3477605-1.8238931 5.3822233-3.9925748-.9655372-2.1686818-2.1625407-4.9358806-3.5910105-8.30159625 11.4714581-10.4287956 19.2541367-10.4287956 23.3480358 0 6.1408487 15.64319335 1.5932602 18.36488835 18.2680325 18.36488835 16.674773 0 17.014247 17.1204562 10.660356 20.0795158-6.353891 2.9590595-10.130735 14.404494 1.148919 11.6008672"/><path d="m20.618677 18.953221 1.374542 3.706172" transform="matrix(.99939083 -.0348995 .0348995 .99939083 -.713151 .756242)"/><path d="m32.072516 23.534756 1.374542 3.706173" transform="matrix(.99939083 -.0348995 .0348995 .99939083 -.866067 1.158766)"/><path d="m25.200212 32.697828 1.374543 3.706173" transform="matrix(.99939083 -.0348995 .0348995 .99939083 -1.19004 .924508)"/><path d="m41.227189 34.991879 1.194866 3.221713" transform="matrix(.99939083 -.0348995 .0348995 .99939083 -1.251939 1.481956)"/><path d="m52.681028 32.701111 1.194866 3.221713" transform="matrix(.99939083 -.0348995 .0348995 .99939083 -1.165015 1.880293)"/></g></g><g transform="translate(216)"><path d="m73.9821198 22.963901s.0074839 9.5477767 1.5454154 10.6552799c1.5363559 1.1082967 5.4972829-1.5292392 5.7139207.0983918.21585 1.6268376-4.6382155.631017-3.9977554 2.8009933.6402632 2.1691828 5.8441003 7.7049135 7.6630702 6.8814771 1.8187728-.8238333 3.726958-16.5544256-7.0527424-22.9058564 0 0 2.3641093 9.9401538 9.9901541 12.2132828 7.6268325 2.274716 13.0662136 2.7851236 11.6927303-.3745237-1.3728928-3.1586555-9.9503715-13.8841586-20.1786302-14.2261496 0 0 16.1645286 1.742686 16.0475442-1.1541203-.1177722-2.8966079-2.7709946-3.9211922-1.3701357-4.1705441 1.4018436-.2485584 1.7825353 3.5430978 3.2206164 3.663112 1.4380812.1188241 9.0566426-5.0187768 9.0293406-6.3464714-.02804-1.32690116-24.8509906-1.30131135-28.5775548 5.7829005 0 0 3.3738385-.078158 5.8464636-4.9053089 0 0 .6581851-.811931-1.6035136-3.34869454 0 0 2.2583507-.65561492 4.0481728.86568942 0 0 2.6104856-3.13941355.5926029-7.88245524 0 0-14.3660409 8.007032-11.5519157 13.94545506 0 0-2.3056171-9.28890296-15.9951572-9.3845176 0 0 3.504018 11.2416634 13.5339547 11.7100165 0 0-3.3116043-3.0110678-13.442573-1.8484175-10.1305748 1.1628486-24.181703 6.4236376-24.6240381 7.7993379-.4441075 1.3749069 17.9275665 7.5918423 23.0471118 2.2828492 0 0 .8037263-1.9979889-.302899-4.5984295 0 0 1.3319286 5.2498787 4.5590442 4.2923436 3.2277064-.9569399 9.8566264-5.9203713 11.0963855-4.6093398 1.2413347 1.3100396-.3852214.8902873.3426816 1.8263983z" fill="#69b64c"/><path d="m22.6498698 51.4930489s5.1603126 13.5209419 15.0531766 7.8846373c0 0-5.545731-7.8949526-13.2353885-10.3039655l5.06834 1.5587964 1.8162127-4.0160133-.3253506 4.6623048s4.6906024-.636373 6.8873098-.8599367c2.1957227-.2235637-.7895464-4.7091203 1.0617222-3.6200655 1.853041 1.0880629 1.1340005 3.3965018 1.1340005 3.3965018s6.3522144-1.4455267 6.0985512-3.9731652c-.2536632-2.5276386-22.2496877-3.8003845-22.9037369.7357566 0 0 6.2730432-2.2346451 7.0529393-5.506967.7816686-3.27133-3.3305109-4.7688299-1.6836697-5.7342997 1.6450687-.9654698.2572082 5.720017 3.8786046 3.9150427 3.6217902-1.8051727 3.678313-7.5573258 3.1585792-9.5791192-.5197338-2.0215951-14.5858298 3.0808942-16.1257307 16.1658175 0 0-5.8892004-6.5821358-14.27465914 1.4530649 0 0 8.01835614.9402767 13.00575244.113468 0 0-13.23676712 3.9009583-11.43611304 15.5294445 0 0 5.02304304-.3628199 5.07070334-3.1628213.0478573-2.8000014-3.2720187-2.6069868-1.4376873-3.2735121 1.8347253-.6645416 1.9883412 3.2209439 4.0489607.8646976 2.0600286-2.354461 3.8250359-9.3267918 5.1721292-7.7084842 1.3468963 1.6187043 1.3626518 1.7766073 2.9153541 1.4588176" fill="#69b64c"/><path d="m86.2201275.12765295c.1664173-.12933765.3913267-.1634574.5872854-.08827493.1961557.0749841.3424847.25034373.3814795.45823615.1197416.63974527 1.1158817 6.30957454-.7365685 8.40198792-.1658264.18746024-.4344573.25371603-.6686231.16464762-.860249-.32870013-2.0836618-.70401736-2.9303218-.82740389.7708367.75043609 1.9253193 1.88035518 1.2204587 3.05589948-.055735.0930359-.1248622.1969821-.2063968.3108468.6361274-.2412187 1.2838745-.4679563 1.9294551-.6748569 4.5797233-1.46714912 11.8697825-2.90771662 20.589257-1.43322775.232197.03947576.422444.21245495.484875.4403828.062628.22852295-.012604.47529605-.191429.62863655-.213683.1826993-2.129353 1.8166782-4.161021 3.3931295-4.2280755 3.2793622-5.027612 3.2703203-5.4488645 3.0772121l-.0498987-.0243547c-.016141-.0082842-.0318592-.0166639-.047362-.0249281-.2180164-.1162452-.4502127-.3140207-.7188436-.6129652.0257996.4610133-.1400268.822643-.4945251 1.0777476-1.1448323.822643-5.1868999 2.0045352-11.2939198 1.7651018 1.3189304.5423453 2.6010323 1.1396393 3.8177491 1.7789878 6.1261233 3.2205471 10.2834029 7.3908928 12.0220196 12.0611325.116.3128305-.033283.6564084-.340909.781977-.2335749.0948212-5.7877745 2.2971319-11.8634803-.340404-.3225934-.1398513-.6447929-.2929934-.9591147-.4556573.6059951 4.1493184.4269735 9.1200896-1.8717506 10.8486912-.2154562.1614737-.5057508.1630607-.7221917.003174-.7137231-.526674-6.9991737-5.2016746-7.8574533-7.1250762-.1914291-.4286789-.2006854-.8272055-.0273752-1.184471.2585868-.5328235.8391761-.79745 1.5261149-.9978043-1.3557588.3657954-2.7942338.522905-3.2357811-.7672976-.5632583-1.6464762-1.201749-7.2454871-1.4695921-9.7761012-1.2616198 1.0612828-3.9883021 3.647044-6.9129125 7.221881-3.3212545 4.0598533-7.6788256 10.352368-9.5771636 17.2743126-3.7214437 13.5635917-5.1526318 20.7327061-4.3010483 37.2752295.3505593 6.8241479 1.3675754 11.9274444 3.0224913 13.1950327.441884.338456 8.1184025.2153381 15.9510828-.0246232l.9594029-.0299436c.3197402-.0101602.6392593-.0204916.9580759-.0309709l.9538609-.0318575c7.1309307-.2419046 13.662551-.5467534 14.112232-.6475356.3456358-.0773646.6719711-.1507617.9931859-.1870635.3383489-.0345165.6343549.2084875.6711834.5399648.0181187.1620688-.0277691.3217572-.128998.4495079-.101032.1277506-.2455885.2080907-.4068852.2263408-.2564204.0289622-.5522295.0950196-.8651726.1650444-1.1507407.2580802-32.5825197 1.5786469-33.9333549.5449378-2.0070508-1.5377691-3.1193875-6.7021637-3.4998823-14.1057522-.856704-16.6468664.665472-24.2601327 4.3431942-37.6638376 1.9997639-7.2905173 6.6064685-13.8674954 10.1191521-18.1011213 2.1191116-2.5538235 3.9863326-4.4440972 5.17981-5.5801658 2.1425827-2.0400027 2.5937531-2.1967508 2.8326867-2.1945466l.0439923.0019484.0207532.0015946c.2987633.0255898.5376557.2620476.5675911.5615873.0443123.4412754.2652336 2.6097639.5539035 4.8983411l.0842265.6557586c.2719597 2.0781241.590891 4.1292585.8761683 4.9631142.1721286.503663 1.8485113-.0242012 2.7485429-.3074745 1.2279425-.386426 2.1147789-.6653351 2.6660237-.2148354.1437687.1176338.3779345.3882113.3304711.8791786-.1140302 1.1864548-1.4428078 1.5131712-2.6150153 1.8012053-.4480464.1098974-1.3780134.3386187-1.4772729.5429405-.0013786.0115054.0094533.0688346.0439184.1460007.4866473 1.0910385 3.9908623 4.0410081 7.0688917 6.3436943 1.5739722-1.7563735 1.5798805-6.5716221.9102727-10.3644685-3.5656614-2.3221266-6.4213416-6.2008674-8.4880663-11.5291025-.0935482-.2420122-.0254057-.5177473.1703561-.6869575.1955648-.1692101.4766032-.1949983.6997401-.0648672.2420435.1412399 5.9429659 3.5093748 7.6709479 7.847542.4031433 1.0112935.7637467 2.2828492 1.0436034 3.6799735.550457.3316757 1.1245472.6282398 1.7076968.8813607 4.5722394 1.9843014 8.9595489.9478149 10.3535147.5238969-2.2102964-5.2246856-7.3001033-8.7588567-11.1936756-10.8082237-4.2607947-2.2426058-8.1381446-3.286975-8.5017222-3.3822306l-.0275052-.0071299c-.3157004-.079745-.5124469-.393369-.4484403-.7141343.0640066-.3209636.3665118-.5322283.6867419-.4842227 9.6256117 1.4780596 14.9535232-.5804324 15.6034366-1.0470001.0153616-.029954.0647944-.2785124-.8683237-1.820844-.5549867-.9178609-.9216954-1.5242799-.7164803-2.0690057.0976839-.2592704.3115645-.4340349.5723177-.466766.5717269-.0747858.9555697.472122 1.8784467 1.7984281.4639988.6675171 1.1592092 1.6673051 1.5458093 1.9583148.7625651-.1559193 3.8971176-2.4232956 7.4029076-5.3550151-7.777888-1.06842419-14.2762345.216224-18.3730524 1.4903585-1.6220264.5042582-3.1410513 1.0844923-4.5153228 1.7238408-.2922641.2860504-.5882701.5631742-.8805342.8236348-2.5823227 2.3056618-3.2995908 2.0323071-3.6064287 1.9146733-.3393336-.1299327-.5163857-.4834292-.4202773-.840298.1766583-.6570035 1.7839139-1.7710529 4.1960774-2.9091052.8427211-.8309746 1.4857415-1.5748644 1.7655981-2.0422256.2069876-.3455616-.598905-1.13011747-1.0317868-1.55145669-.5512447-.53659254-.9855051-.95932035-.8425241-1.49472267.0449031-.16801993.1884749-.46656772.6447929-.58043246.9772335-.24359913 2.8747837.33663496 3.9701833.72504464.8541438-1.51257603.5348984-4.79680014.3767528-6.02630128-9.0440377 7.15780734-10.7763524 10.31051176-10.9908238 11.56699126.1748858.3435779.3269261.6972728.4517883 1.0519595.0789743.2245555.0204821.4768829-.1490862.6431175-.1701592.1662346-.4224437.217811-.6428235.1315198-.0756263-.0293589-.7436585-.3146159-.8765953-1.2354523-.0153616-.1063267-.0228455-.2184061-.0222546-.3330643-2.8606038-5.09852186-11.2773766-7.09472548-14.0495528-7.62338321 1.0887035 3.8231971 3.0447459 6.64918511 5.8157405 8.40139281 2.7077756.2652215 5.1197422.9384914 7.1693328 2.0019564.2410588.1249735.3712385.3991217.3168821.6667237-.0553411.2691889-.2767056.4647823-.5512448.4868015-.115015.0089266-2.8300775.180914-5.9386332-1.233667-.456318-.2074956-.9047582-.4435567-1.3333072-.7016369-4.5828744-.3965429-10.3338204.3915836-16.6312846 2.2806671-5.8151496 1.7440746-10.7787157 4.0070867-12.8212164 4.9904099 5.6164337 2.6020275 10.7103764 3.1086661 14.010361 3.0723643 4.0846074-.0448318 6.8244849-.9136951 7.2788335-1.2683818.3251536-.2541128.2869466-1.3148005-.097487-2.7020063-.2918703-.70005-.4200805-1.2495366-.4253979-1.2725476-.0722783-.3084663.1065464-.6258593.4070821-.7222675.3007327-.0964081.6284466.0593129.7466127.3534965.0724752.1795254.2593745.6623595.4326848 1.2632242.4320939 1.014269 1.2131717 2.3126047 2.4560819 2.6724491 1.6131639.4665677 8.1662607-2.5518398 11.9194122-4.563318.2924611-.1571095.6497165-.0527665.8131796.2376481.16366.2898194.0701119.6524409-.2130928.8252218-5.5415952 3.3818224-10.4064926 8.4002025-14.4591952 14.9160825-3.3271628 5.3496591-6.1275019 11.7316389-8.3228307 18.9687945-4.2900195 14.1388665-4.7971489 26.6651781-4.8166463 27.1916538-.0594769 1.6054135-.0600677 3.3167569-.0606586 4.971763-.0013786 4.5490352-.0025602 8.4745916-1.124941 10.0026405-1.8083349 2.4601925-4.1167092 1.8537735-5.6952111 1.1840743-2.1762252-.9228202-9.8676552-10.7604163-14.386326-23.5081096-4.6458963-13.1073392-2.3983775-22.7009394-2.3006936-23.1028383.0584922-.2390366.2524815-.4185621.4937373-.4578394.2357413-.0390791.4819206.0720085.6107217.2793058 2.9947223 4.8174307 6.4327643 7.6606769 9.941706 8.2222641 1.7959274.2872407 3.162715-.0799433 3.8650154-.3517111-1.2376285-3.3543887-7.6250148-6.7249682-10.7124769-8.2769199l-.6214224-.3107429c-.4663621-.232292-.8350403-.4159832-1.100914-.5588101-.3879786-.2082891-.7889555-.4235213-.7013157-.9117114.0506145-.2793058.2798567-.4869999.5707422-.5163587.7338113-.0730004 3.29191.8266104 4.8125105 1.3949422l1.5806682-3.4962823c.1199386-.2656182.4118088-.4100321.693044-.3415942.2820231.0678428.4779818.3288985.4659683.6201066-.0031089.0752746-.0476711 1.1600972-.1203754 2.3259568l-.0268072.4133328c-.0418985.6205107-.0912456 1.2331176-.1460662 1.7000467.7804869.0424513 2.9352453-.5235001 3.9957859-.8000288 1.0841737-.2830749 1.6915474-.4383991 2.0732238-.46994.1234836-.3338578.2123051-1.1592779.261147-1.6143402.1203325-1.1136527.1888688-1.6171173.554002-1.8795617.1656294-.1192207.3655271-.1598867.5612889-.1146582.6205688.1394546.7466126.8674748.937057 1.969622.0665669.3850374.1851268 1.0737802.309792 1.3878009.9742793-.2925967 4.1259656-2.258648 5.0594776-3.1517125-1.0475423-.4671629-4.9720347-1.5046413-12.7223508-1.5516551-2.0054752-.0119022-3.8531988.1523487-5.4923593.4881901-1.0697968.8555725-2.5835043 1.9263772-3.7578782 2.20727-.2426343.0573291-.9776273.2328871-1.3559557-.2406236-.1900505-.2382431-.2172286-.5598019-.0728691-.8605318.4055066-.8464474 2.2410197-1.7311804 4.6793767-2.2568626 1.5263118-1.2544958 2.7967941-2.5681061 3.120963-3.0269374.0151647-.3935673-.6457776-1.6673051-1.2927369-2.6954601-.4364267-.3330643-.7351899-.6752536-.888018-1.0178397-.0754294-.168615-.3054593-.6823949.1354971-.9954238.0718843-.0507828.4498188-.2830749.8565071.1102941.1077281.1041446.4257918.5203262.7743817 1.0392637.8188909.560397 2.1228536 1.0712014 3.0189463 1.3475317.7564599-.6603758 2.4255557-2.7188678 2.6644481-8.1262528-5.0732636 1.3009146-9.1048932 4.2441396-11.9842066 8.7503268-2.2693795 3.5506358-2.9141724 6.7275414-2.9202777 6.7592807-.0413581.2074957-.1896565.3814668-.3867969.453872-.1969435.0731988-.4208682.0365002-.585513-.0944244-4.172838-3.3282624-9.88321374-.709175-12.36588304.7276235 5.85493224 1.2539007 11.25984864-.2164224 11.31479584-.2318953.3251536-.0884733.6518828.0970032.7440524.4223311.090594.3209637-.093942.6591856-.411218.7538084-4.9190568 1.4699263-8.2619752 4.2631831-9.93619154 8.3024058-1.1509376 2.7765937-1.1404996 5.3591809-1.09185456 6.2639493.8450844-.3396105 2.9903895-1.9716056 4.0292663-3.1842453.149677-.1751612.0506145-.4429616-.898653-1.2947651-.5729086-.5139783-1.02528768-.9196462-.91696878-1.4840106.04135813-.216224.18473297-.5082256.63277938-.6704928.8096345-.2945803 1.4810148.1652428 2.0738146.570514.7422799.5076304 1.1942652.7742405 1.8552074.3527029 1.2592565-.8026075 4.0907127-5.5783804 4.8131013-7.0375947.0734599-.3931706.1636601-.4893803.243816-.5744813.2635104-.2818847.5549867-.2263409.6680323-.1888489.2213644.0726037.3897511.2789091.4185048.5131848.0169372.1340986.0179219.2372513-.1650386.6282398-.0741174.5484551-.122288 1.8898376-.1260846 3.715289l.0004033.6259885c.0157297 4.8230229.3215946 12.4569914 1.2055223 18.075992.7444463 4.7245932 3.079211 10.4489744 5.1390427 15.4994906 1.5241455 3.737501 2.8393339 6.9620155 3.1849697 9.0254668.1792186 1.067234-.0673547 2.0241739-.7326297 2.8438415-2.0287146 2.500263-10.9892483 4.084649-13.5130787 4.337175 0 0-.0075255.054022-.0233468.149884l-.0075429.0448c.044093.59883-.0433186 1.781695-1.0612829 3.196899-.0561021.087743-.1135239.169448-.1733861.245741l-.013188.002655c-.0144484.018448-.0290569.036931-.0438272.055448-.3015204.377896-.6753191.540163-1.1072161.548693-.9583269.019242-2.2028126-.71711-3.57629634-1.530429-2.32806867-1.377684-5.78697891-3.191964-8.16290485-2.003327l-.49669141-1.007525c2.91752046-1.459214 6.66495287.526061 9.22521788 2.041216 1.35044132.799632 2.88147982 1.705194 3.24740072 1.247354.3516569-.440917.5897368-.848545.7494956-1.210508.1028863-.564471.1783383-1.141735.2260639-1.727341l-.010438-.000198c-1.6151334-.033128-2.8686785-.510209-3.7271551-1.419144-1.08397677-1.147574-1.48869559-2.946994-1.20253674-5.34827.30368682-2.549261.94020814-3.9521381 1.94580144-4.2889714.4277612-.1434219 1.0942179-.1489763 1.8394519.6373648 1.4628961 1.5439186 2.476958 5.3696946 2.4261465 9.1300086 2.2425952-.255502 10.6991506-1.631599 12.519499-3.8763609.4393809-.5415518.5947693-1.1517398.4750277-1.8654773-.3233812-1.9295511-1.6153303-5.0967366-3.1111159-8.7644111-2.0848435-5.1124078-4.448362-10.9072106-5.214866-15.7724486-.8159367-5.1860033-1.0869309-11.8845826-1.1653144-14.5239038-.063022-2.1090765-.0815346-4.1013127-.0533717-5.6577287-.1800064.3027136-.3633607.6046337-.5475029.900801-1.0178038 1.6389382-2.441705 3.7263923-3.4431625 4.3649473-1.236608.7877298-2.2158109.2735531-2.9598633-.2205881.6503073.6633514 1.2761936 1.5865683.4836931 2.5121656-.3523318.4116191-4.05742919 4.0878235-5.51481081 3.6238346-.34839299-.1106908-.57980156-.4096353-.61899331-.8000287-.05927998-.5895575-.28162915-3.7051666 1.15625507-7.1738754 1.24822767-3.0114645 3.35099305-5.3986566 6.25334885-7.1012717-3.0581381.198569-5.93016462-.0839108-8.54301354-.840298-.22175834-.0644704-.39053889-.2539144-.43032147-.4828341s.05553806-.4649807.24283129-.6008646c.08862456-.0646688 2.20694844-1.5950982 5.10516842-2.5629485 3.5298177-1.1783215 6.6913511-.9730079 9.1535383.592533.3637546-1.2757215 1.1976132-3.6789816 2.8647396-6.2877537 2.2018279-3.4458962 6.3319293-7.8850341 13.5026407-9.4634692.1790216-.0394757.3639516.0037691.5075233.118824.1433749.1148566.2268789.2866456.2292422.4711303.003742.3058875.0504176 7.5170565-3.406531 10.080005-.1510557.1122778-.3416969.147191-.5230819.0966065-.1622814-.0458236-.9606902-.2773221-1.8542227-.6502589.4901923 1.0485871.6024501 1.7922786.3334253 2.2122292-.2477549.3856325-1.017213 1.2049032-1.9144874 2.044011 1.1836302-.1360823 2.4430837-.2011478 3.748228-.1934114 8.2111638.0511796 13.3529637 1.2015309 14.0188296 2.2606317.1388451.2205881.2203797.5869787-.1784308 1.0785411-.543564.6706911-2.0389557 1.6986477-3.2574449 2.4365864-2.6849302 1.6264408-3.1619273 1.4445349-3.3907756 1.3572518-.4626202-.1767482-.6867419-.7046124-.8350403-1.3122217l-.0000881.0005069-.0278269.1530553c-.147434.7603739-.4180278 1.3982762-1.049217 1.4225851l-.1311161-.0034649c-.1904444-.0041658-1.1361669.2426072-1.8280292.4233229l-.0539626.0138859c-2.1888296.5713074-3.5453762.8718389-4.3898697.8264121 3.9845601 2.4607876 6.2436986 4.7991806 6.7173476 6.9548742.0580983.2642296-.0602647.5312365-.2938397.6643432-.0840948.0480057-2.0915395 1.1689981-5.0864588.6891396-4.4048375-.7050093-7.8121563-4.4139449-9.9344191-7.4886896-.1536159 1.0948075-.320427 2.7696507-.3231842 4.8894392-.0053175 3.6395059.4846779 9.3763845 2.8466208 16.0390587 4.5700731 12.8938924 12.0627871 22.09214 13.7135672 22.7919916 1.96136.8323632 3.2320392.5980875 4.2478736-.7843574.8035293-1.0939239.8777168-4.5822304.8856004-8.1868616l.0008892-.7218023.0001498-.3607988c.0005909-1.6712725.0009848-3.3949149.0612495-5.0229427.0200882-.5338153.5415945-13.239454 4.8686393-27.5036907 2.2270367-7.3399116 5.071885-13.8200849 8.4557676-19.2603993 2.7851744-4.4784153 5.9756585-8.2982401 9.4893268-11.3630663-3.4652202 1.4909536-5.7706404 2.0860655-6.8563897 1.7718464-.6503073-.1880553-1.2501971-.5584133-1.7850955-1.101552-.0783835.5851933-.2981724 1.0220054-.6552309 1.3007162-.752521.5877721-3.8183399 1.4786546-8.0094937 1.524875-3.709824.0406659-9.4422574-.5754732-15.6837896-3.7438489-.2044273-.1041446-.3322436-.3118386-.3340161-.542742-.0011817-.2311018.1248621-.4403828.3281078-.5465111l.0258106-.0133643c.4460316-.2301424 6.5162929-3.3309563 14.0991715-5.6070707 5.7206167-1.7174929 10.8129839-2.5445 15.1404226-2.4595974-2.4367815-2.1122504-4.1328586-5.10268763-5.0433282-8.89374869-.0472665-.19718041.0049236-.4038826.1394359-.55385079.1349063-.15036494.3336223-.22316696.5329291-.19618855.1382543.01904358 3.4337092.47985854 7.133883 1.89523297 3.7153384 1.42073043 6.4309918 3.27331372 8.074682 5.50756206 1.2263669-2.66114193 5.2229406-6.64343227 11.8849471-11.84113945zm-74.6120308 94.71066745c-.0086655 0-.0171341.0003967-.0254057.0011902-.0128014.0011902-.0252088.0039674-.0376162.0081332-.0779897.0261849-.773594.3402056-1.1235625 3.2745039-.2406649 2.0217933.0543564 3.4885463.8767923 4.3595913.627068.663351 1.5922879 1.012682 2.8706479 1.038867.0157555.000397.031511.000793.0472664.000793.0644006-3.7793567-1.0081535-7.2066061-2.093509-8.3523948-.1981251-.2090826-.3836458-.3279066-.5146132-.3306838zm18.9522633-44.9948225-.4714827 1.0428344c-.0710966.157903-.201867.2711727-.3543013.324336.247361.1378676.4905862.2757352.7271153.4130076-.0451001-.1331066-.0573106-.2795042-.0354498-.4324479.0441153-.3058875.0890184-.7577758.1341185-1.3477301zm48.63893-27.717931c1.6529465 3.6307776 3.7375931 6.4389122 6.2027344 8.3553708-.2065937-.8230397-.4415473-1.5661361-.6991493-2.2124276-1.0294235-2.585166-3.7714673-4.8856701-5.5035851-6.1429432z" fill="#852e2c"/></g></g></svg>