<svg height="119" viewBox="0 0 189 119" width="189" xmlns="http://www.w3.org/2000/svg"><g fill="none" fill-rule="evenodd" transform="translate(.668844 1.020928)"><ellipse cx="73.331156" cy="38.979072" fill="#ffcd00" rx="5" ry="6"/><ellipse cx="113.831156" cy="46.979072" fill="#feae76" rx="3.5" ry="6"/><path d="m187.331156 43.9712264c-30.786944 28.2069274-10.958436-66.0650302-28.585328-39.04657154-17.626893 27.01845864-48.772231 19.53748814-65.0302573 10.18874574-10.8386841-6.23249497-20.0936599-4.2772711-27.7649274 5.8656718-1.7645936 3.5936515-2.2350877 6.2795092-1.4114824 8.057573 2.4924644 5.3847044 10.2022181 3.0452228 12.7495254 8.5064186 1.1069601 2.3712328.636466 5.233165-1.2931373 6.9996829-3.7625099 3.442112-9.4272017.0490699-9.1703061-4.9069942.1096857-2.1273263 1.0824251-4.2878469 2.5776151-5.7411831 2.4621565-2.3943245 5.9374629-3.1996488 9.2525704-3.2847996 6.6186692-.1703016 14.3313094 3.5849922 15.0601423 10.6424043-1.1646894-.988615.5094615-2.9932664 1.9931056-2.8864671 3.3569613.2381335 4.8911187 5.555006 2.6093663 8.2192152-2.2817523 2.6627659-6.7399008 2.107121-8.897535-.6552281-2.1576341-2.7609058-2.1763962-6.9650452-.6840927-10.207991 2.421746-5.2649161 8.6839364-8.0907674 13.8665881-6.259304 5.184095 1.8329066 8.626207 8.0907674 7.626046 13.8579287.916454-1.3003534 2.977391-1.0275823 3.957347.2121554.978512 1.2382944 1.076652 3.0365634.805324 4.6385527-.225144 1.3321045-.871713 2.8157486-2.111451 3.071201-1.750642.3593652-2.919661-1.9902191-2.906672-3.9025036.023092-3.5821057 2.163407-7.0574121 5.228835-8.4890998 3.065428-1.4302445 6.884224-.7374924 9.327619 1.6929129 1.271488 1.2657159 2.31206 3.0250176 4.007859 3.4276798 1.49519 2.3149466-.47771 5.9475655-3.101509 6.1525047-2.622355.2049391-4.950291-2.4318486-5.129252-5.2461541-.180404-2.8143054 1.415812-5.5232548 3.582106-7.1324603 4.270528-3.1736706 10.766522-2.1143371 13.940193 2.2702064 3.173671 4.3845436 2.527102 11.4087614-1.389834 15.070245-3.743748 3.5027279-9.431531 3.794261-13.123323 7.3604912-5.071522 4.8983347-1.255613 10.3061309-4.09734 16.9594377-8.460235 19.8141537-38.7551509 15.1380769-51.9145546 4.7280332-11.0898067-8.7734169-17.0691234-25.3503977-12.1808913-39.2227588 28.3985069 13.0511612 57.3973989 15.3762105 88.3691919 13.1853819 2.234125-.1587557 4.344133 1.4172554 4.700611 3.775499 1.479315 9.7966695-9.284321 22.0121985-16.156999 27.0808348-7.854078 5.7931395-18.900587 10.4620001-28.324903 11.3986589-25.9695444 2.584831-48.5879009 0-61.2024012-38.141777-3.7232144-11.2576803-6.3212293-16.9161407 1.7405396-17.7965132 8.061769-.8803724-5.5491804 14.891284-19.9338894 18.0332035-13.5678388 2.9629585-1.6426639 73.9971477-24.315655 48.9742037" stroke="#852e2c" stroke-linecap="round" stroke-linejoin="round" stroke-width="1.2"/></g></svg>