<svg fill="none" height="104" viewBox="0 0 56 104" width="56" xmlns="http://www.w3.org/2000/svg"><path clip-rule="evenodd" d="m14.7872 38.1176c2.5857-11.7236 8.2205-.0365 14.7128 0 3.7646.0212 8.7724-16.0771 11.158-11.196 6.4998 13.299 7.7195 55.4691 0 66.1073-7.7195 10.6381-19.3152 7.8471-22.7711 0-3.4558-7.8472-7.1846-36.3897-3.0997-54.9113z" fill="#ffbe9f" fill-rule="evenodd"/><path clip-rule="evenodd" d="m19.8593 46.1171c.1506 0 .151-.2341 0-.2341-.1507 0-.1507.2341 0 .2341z" fill="#c88a65" fill-rule="evenodd"/><path d="m22.064 1c2.9492 5.14906 7.6721 6.66057 12.8859 7.88103 1.6444.38518 11.6669 1.68947 9.409 5.42527-3.2205 5.3279-8.6564 8.8582-14.3324 10.3639-5.6759 1.5054-11.5889 1.1453-17.2349-.0135-1.5327-.3145-3.11632-.7198-4.28443-1.8038-1.16769-1.0836-1.76987-3.0444-.9539-4.5284.52717-.959 1.50483-1.5172 2.45163-1.9583 5.6393-2.6267 11.867-2.8943 17.9242-3.1221 5.1359-.1923 10.573-.3091 14.9254 2.4377 4.4457 2.8051 6.9849 8.221 7.8842 13.7474.8993 5.526.3751 11.2506-.0458 16.8995-.7531 10.1172-1.1661 20.2493-1.2369 30.369-.0642 9.0982-.3096 20.3315-9.9875 24.0143-8.6127 3.278-18.9494 3.573-25.5921-2.7171-2.8801-2.7271-3.5773-6.5866-4.64952-10.4548-4.07692-14.7081-6.94198-30.2506-7.93548-45.8154-.22211-3.476-1.039333-7.6911.40132-11.0553.58676-1.3705 2.40373-1.7516 3.38014-.7506 1.036 1.0618.94307 4.2689 1.17603 5.7566 1.64152 10.4794 3.22053 20.9724 4.79831 31.4658.723 4.8103 1.4736 9.6157 2.1724 14.4314.8385 5.7772 1.196 12.2873 7.6779 15.256 2.4434 1.119 5.2113 1.1358 7.8497.4263 3.7097-.9976 9.119-1.0605 11.8598-5.0372 2.3767-3.4485 2.4863-7.8239 2.9847-11.8713 1.6794-13.6295 2.8134-27.6404 1.5348-41.234-.2609-2.7702-.6197-5.5865-1.7719-8.0418-.6076-1.2945-1.6228-2.5766-2.9905-2.5791-.8489-.0008-1.6545.5081-2.29 1.1432-1.9945 1.9929-2.595 5.0911-2.7738 7.9645-.1788 2.8726-.0654 5.8347-1.0643 8.5412-1.7732 4.8034-5.6809 5.4101-9.0832 2.4101-1.5936-1.4054-2.9063-3.3214-3.6893-5.387-.721-1.9021-.3463-6.5439-2.1883-7.4108-1.324-.6232-2.9863.1735-3.8973 1.4519-.911 1.2776-1.226 2.912-1.4077 4.4876-.7573 6.5636 1.2843 15.7662 6.5735 19.5596 2.3321 1.6726 5.3843 1.9858 8.196 1.3277 3.8173-.8936 7.7158-4.4132 10.2225-8.5067 5.9168-9.6642 15.8972 3.0206 15.8972 3.0206" stroke="#c68b66" stroke-linecap="round" stroke-width="1.2"/><path clip-rule="evenodd" d="m19.8593 46.1183c.1523 0 .1523-.2366 0-.2366-.1522 0-.1522.2366 0 .2366z" fill="#c88a65" fill-rule="evenodd"/></svg>