<svg fill="none" height="84" viewBox="0 0 45 84" width="45" xmlns="http://www.w3.org/2000/svg"><path clip-rule="evenodd" d="m8.78723 39.1876c2.58567-7.9214 8.22047-.0247 14.71277 0 3.7646.0143 8.7724-10.8629 11.158-7.5649 6.4998 8.9858 7.7195 37.4791 0 44.6671s-19.3152 5.3022-22.7711 0c-3.45577-5.3022-7.18459-24.5876-3.09967-37.1022z" fill="#ffcd00" fill-rule="evenodd"/><path d="m17.8852.84613c2.3484 4.13944 6.1092 5.35457 10.2609 6.33573 1.3095.30965 9.2903 1.35823 7.4924 4.36154-2.5645 4.2832-6.8931 7.1212-11.4128 8.3317-4.5197 1.2102-9.2283.9207-13.7241-.0109-1.22052-.2528-2.48153-.5786-3.41169-1.4501-.92982-.8711-1.40934-2.4474-.75959-3.6404.41979-.771 1.19829-1.2198 1.95224-1.5743 4.49054-2.1117 9.44964-2.3269 14.27294-2.5099 4.0897-.1547 8.4193-.2486 11.8851 1.9596 3.5401 2.2551 5.562 6.6091 6.2781 11.0519.7161 4.4425.2987 9.0446-.0365 13.5858-.5996 8.1335-.9285 16.2789-.9849 24.4144-.0511 7.3142-.2466 16.3449-7.953 19.3059-6.8582 2.6352-15.0893 2.8718-20.3789-2.1847-2.29338-2.1923-2.84855-5.2951-3.70239-8.4048-3.24644-11.8242-5.52787-24.3192-6.31899-36.832-.17687-2.7944-.827617-6.1831.31957-8.8876.46724-1.1018 1.91408-1.4081 2.69159-.6034.82497.8536.75097 3.4319.93647 4.6278 1.30713 8.4247 2.56449 16.8602 3.82086 25.296.57575 3.8672 1.17339 7.7304 1.72989 11.6018.6677 4.6444.9524 9.878 6.1139 12.2646 1.9456.8996 4.1497.9131 6.2506.3427 2.9541-.802 7.2615-.8526 9.444-4.0495 1.8925-2.7723 1.9798-6.2898 2.3767-9.5436 1.3373-10.957 2.2403-22.2207 1.2222-33.1489-.2078-2.227-.4935-4.4911-1.411-6.465-.4839-1.0406-1.2922-2.0713-2.3814-2.0733-.6759-.0007-1.3174.4084-1.8234.919-1.5882 1.6021-2.0664 4.0929-2.2088 6.4028-.1424 2.3093-.0521 4.6907-.8475 6.8665-1.412 3.8615-4.5237 4.3493-7.2329 1.9375-1.269-1.1298-2.3143-2.6702-2.9378-4.3308-.5741-1.529-.2758-5.2607-1.7426-5.9576-1.0542-.501-2.378.1394-3.1034 1.1672-.7254 1.0271-.9763 2.341-1.1209 3.6077-.603 5.2766 1.0227 12.6748 5.2345 15.7243 1.857 1.3447 4.2874 1.5965 6.5264 1.0674 3.0397-.7184 6.1441-3.5479 8.1401-6.8387 4.7116-7.7693 12.6589 2.4283 12.6589 2.4283" stroke="#852e2c" stroke-linecap="round" stroke-linejoin="round" stroke-width="1.2"/></svg>