<svg fill="none" height="67" viewBox="0 0 36 67" width="36" xmlns="http://www.w3.org/2000/svg"><path clip-rule="evenodd" d="m7.35396 39.7488c1.95881-4.5944 6.22764-.0143 11.14604 0 2.852.0083 6.6457-6.3005 8.453-4.3876 4.9241 5.2117 5.8481 21.7378 0 25.9069-5.848 4.169-14.6327 3.0752-17.25077 0-2.61804-3.0753-5.4429-14.2608-2.34827-21.5193z" fill="#ffbe9f" fill-rule="evenodd"/><path d="m13.9782 1c1.8569 3.28127 4.8306 4.24448 8.1133 5.02223 1.0354.24545 7.3458 1.07664 5.9242 3.4573-2.0277 3.39517-5.4503 5.64487-9.0241 6.60447-3.5737.9593-7.2967.7298-10.85156-.0087-.96507-.2004-1.96215-.4587-2.69762-1.1494-.73522-.6906-1.11437-1.9401-.60061-2.8857.33192-.6112.94748-.9669 1.54363-1.248 3.55065-1.67391 7.47176-1.84444 11.28556-1.98957 3.2337-.12259 6.6571-.19699 9.3975 1.55337 2.7992 1.7876 4.3979 5.2389 4.9641 8.7606.5663 3.5215.2362 7.1695-.0288 10.7693-.4742 6.4473-.7342 12.904-.7788 19.3528-.0404 5.7979-.195 12.9564-6.2884 15.3035-5.4228 2.0889-11.9311 2.2764-16.11357-1.7318-1.81336-1.7378-2.25234-4.1973-2.92747-6.6623-2.56695-9.3728-4.37087-19.2774-4.996405-29.1961-.139853-2.2151-.654398-4.9012.252685-7.045.36944-.8734 1.51345-1.1162 2.12823-.4784.6523.6767.59379 2.7204.74046 3.6685 1.03355 6.678 2.02774 13.3647 3.02115 20.0517.45524 3.0654.9278 6.1277 1.36783 9.1965.52793 3.6815.75306 7.8301 4.83429 9.722 1.5383.713 3.2811.7238 4.9423.2716 2.3358-.6357 5.7416-.6758 7.4673-3.21 1.4964-2.1975 1.5655-4.9858 1.8793-7.565 1.0574-8.6855 1.7714-17.614.9663-26.2766-.1642-1.7653-.3901-3.56-1.1156-5.1247-.3826-.8249-1.0218-1.6419-1.8829-1.6435-.5345-.0005-1.0417.3238-1.4419.7285-1.2558 1.27-1.6339 3.2443-1.7464 5.0754-.1126 1.8306-.0412 3.7182-.6702 5.443-1.1164 3.0609-3.5768 3.4476-5.719 1.5358-1.0034-.8956-1.8299-2.1166-2.3229-3.4329-.4539-1.2121-.2181-4.1701-1.3778-4.7226-.8336-.3971-1.8803.1106-2.45388.9252-.57358.8142-.77195 1.8557-.88635 2.8598-.47676 4.1827.80868 10.0471 4.13893 12.4644 1.4683 1.0659 3.3901 1.2655 5.1604.8462 2.4035-.5695 4.8581-2.8124 6.4364-5.421 3.7254-6.1586 10.0093 1.9249 10.0093 1.9249" stroke="#c68b66" stroke-linecap="round" stroke-width="1.2"/></svg>